<?xml version="1.0" encoding="UTF-8" standalone="no"?>
<!DOCTYPE svg PUBLIC "-//W3C//DTD SVG 1.1//EN" "http://www.w3.org/Graphics/SVG/1.1/DTD/svg11.dtd">
<svg width="100%" height="100%" viewBox="0 0 400 400" version="1.1" xmlns="http://www.w3.org/2000/svg" xmlns:xlink="http://www.w3.org/1999/xlink" xml:space="preserve" xmlns:serif="http://www.serif.com/" style="fill-rule:evenodd;clip-rule:evenodd;stroke-linejoin:round;stroke-miterlimit:2;">
    <g transform="matrix(11.3912,0,0,11.3912,63.3011,51.8882)">
        <path d="M18.25,14.5C20.321,14.5 22,16.179 22,18.25C22,20.254 20.428,21.891 18.452,21.995L18.253,22L17.253,22.005C16.839,22.007 16.502,21.672 16.5,21.258C16.498,20.878 16.779,20.563 17.145,20.512L17.247,20.505L18.25,20.5C19.493,20.5 20.5,19.493 20.5,18.25C20.5,17.059 19.575,16.084 18.404,16.005L18.25,16L17.25,16C16.836,16 16.5,15.664 16.5,15.25C16.5,14.87 16.782,14.557 17.148,14.507L17.25,14.5L18.25,14.5ZM13.75,14.5C14.164,14.5 14.5,14.836 14.5,15.25C14.5,15.63 14.218,15.944 13.852,15.993L13.75,16L12.75,16C11.507,16 10.5,17.007 10.5,18.25C10.5,19.441 11.425,20.416 12.596,20.495L12.75,20.5L13.75,20.5C14.164,20.5 14.5,20.836 14.5,21.25C14.5,21.63 14.218,21.944 13.852,21.993L13.75,22L12.75,22C10.679,22 9,20.321 9,18.25C9,16.246 10.572,14.609 12.551,14.505L12.75,14.5L13.75,14.5ZM8.207,4C8.667,4 9.115,4.141 9.491,4.402L9.647,4.521L12.022,6.5L19.75,6.5C20.887,6.5 21.827,7.343 21.979,8.438L21.995,8.596L22,8.75L22.001,15.335C21.596,14.815 21.085,14.381 20.501,14.066L20.5,8.75C20.5,8.37 20.218,8.057 19.852,8.007L19.75,8L12.021,8L9.647,9.979C9.294,10.273 8.859,10.452 8.403,10.491L8.207,10.5L3.5,10.499L3.5,17.75C3.5,18.13 3.782,18.444 4.148,18.493L4.25,18.5L8.007,18.501C8.034,19.028 8.147,19.533 8.333,20.001L4.25,20C3.059,20 2.084,19.075 2.005,17.904L2,17.75L2,6.25C2,5.059 2.925,4.084 4.096,4.005L4.25,4L8.207,4ZM18.25,17.5C18.664,17.5 19,17.836 19,18.25C19,18.63 18.718,18.944 18.352,18.993L18.25,19L12.75,19C12.336,19 12,18.664 12,18.25C12,17.87 12.282,17.557 12.648,17.507L12.75,17.5L18.25,17.5ZM8.207,5.5L4.25,5.5C3.87,5.5 3.557,5.782 3.507,6.148L3.5,6.25L3.5,8.999L8.207,9C8.347,9 8.484,8.961 8.602,8.887L8.687,8.826L10.578,7.249L8.687,5.674C8.579,5.584 8.449,5.527 8.311,5.507L8.207,5.5Z" style="fill:rgb(202,202,202);fill-rule:nonzero;"/>
    </g>
</svg>
